<mxfile host="app.diagrams.net" modified="2023-08-03T15:37:28.368Z" agent="Mozilla/5.0 (Windows NT 10.0; Win64; x64; rv:109.0) Gecko/20100101 Firefox/115.0" etag="vyYuybPA7raQBtmft_Yi" version="21.6.6" type="github">
  <diagram name="Seite-1" id="flMsPSDjYhw51DMS4m7R">
    <mxGraphModel dx="1114" dy="741" grid="1" gridSize="10" guides="1" tooltips="1" connect="1" arrows="1" fold="1" page="1" pageScale="1" pageWidth="827" pageHeight="1169" math="0" shadow="0">
      <root>
        <mxCell id="0" />
        <mxCell id="1" parent="0" />
        <mxCell id="IN42v5I6NDS5oKX-7B5c-4" value="" style="edgeStyle=orthogonalEdgeStyle;rounded=0;orthogonalLoop=1;jettySize=auto;html=1;" edge="1" parent="1" source="IN42v5I6NDS5oKX-7B5c-2" target="IN42v5I6NDS5oKX-7B5c-3">
          <mxGeometry relative="1" as="geometry" />
        </mxCell>
        <mxCell id="IN42v5I6NDS5oKX-7B5c-2" value="MaterialApp" style="rounded=1;whiteSpace=wrap;html=1;" vertex="1" parent="1">
          <mxGeometry x="354" y="20" width="120" height="80" as="geometry" />
        </mxCell>
        <mxCell id="IN42v5I6NDS5oKX-7B5c-6" value="" style="edgeStyle=orthogonalEdgeStyle;rounded=0;orthogonalLoop=1;jettySize=auto;html=1;" edge="1" parent="1" source="IN42v5I6NDS5oKX-7B5c-3" target="IN42v5I6NDS5oKX-7B5c-5">
          <mxGeometry relative="1" as="geometry" />
        </mxCell>
        <mxCell id="IN42v5I6NDS5oKX-7B5c-8" value="" style="edgeStyle=orthogonalEdgeStyle;rounded=0;orthogonalLoop=1;jettySize=auto;html=1;" edge="1" parent="1" source="IN42v5I6NDS5oKX-7B5c-3" target="IN42v5I6NDS5oKX-7B5c-7">
          <mxGeometry relative="1" as="geometry" />
        </mxCell>
        <mxCell id="IN42v5I6NDS5oKX-7B5c-10" value="" style="edgeStyle=orthogonalEdgeStyle;rounded=0;orthogonalLoop=1;jettySize=auto;html=1;" edge="1" parent="1" source="IN42v5I6NDS5oKX-7B5c-3" target="IN42v5I6NDS5oKX-7B5c-9">
          <mxGeometry relative="1" as="geometry" />
        </mxCell>
        <mxCell id="IN42v5I6NDS5oKX-7B5c-3" value="Scaffold" style="rounded=1;whiteSpace=wrap;html=1;" vertex="1" parent="1">
          <mxGeometry x="354" y="180" width="120" height="80" as="geometry" />
        </mxCell>
        <mxCell id="IN42v5I6NDS5oKX-7B5c-16" value="" style="edgeStyle=orthogonalEdgeStyle;rounded=0;orthogonalLoop=1;jettySize=auto;html=1;" edge="1" parent="1" source="IN42v5I6NDS5oKX-7B5c-5" target="IN42v5I6NDS5oKX-7B5c-15">
          <mxGeometry relative="1" as="geometry" />
        </mxCell>
        <mxCell id="IN42v5I6NDS5oKX-7B5c-22" value="" style="edgeStyle=orthogonalEdgeStyle;rounded=0;orthogonalLoop=1;jettySize=auto;html=1;" edge="1" parent="1" source="IN42v5I6NDS5oKX-7B5c-5" target="IN42v5I6NDS5oKX-7B5c-21">
          <mxGeometry relative="1" as="geometry" />
        </mxCell>
        <mxCell id="IN42v5I6NDS5oKX-7B5c-5" value="AppBar" style="rounded=1;whiteSpace=wrap;html=1;" vertex="1" parent="1">
          <mxGeometry x="354" y="390" width="120" height="80" as="geometry" />
        </mxCell>
        <mxCell id="IN42v5I6NDS5oKX-7B5c-7" value="Color" style="rounded=1;whiteSpace=wrap;html=1;" vertex="1" parent="1">
          <mxGeometry x="20" y="340" width="120" height="80" as="geometry" />
        </mxCell>
        <mxCell id="IN42v5I6NDS5oKX-7B5c-12" value="" style="edgeStyle=orthogonalEdgeStyle;rounded=0;orthogonalLoop=1;jettySize=auto;html=1;" edge="1" parent="1" source="IN42v5I6NDS5oKX-7B5c-9" target="IN42v5I6NDS5oKX-7B5c-11">
          <mxGeometry relative="1" as="geometry" />
        </mxCell>
        <mxCell id="IN42v5I6NDS5oKX-7B5c-9" value="Center" style="rounded=1;whiteSpace=wrap;html=1;" vertex="1" parent="1">
          <mxGeometry x="690" y="340" width="120" height="80" as="geometry" />
        </mxCell>
        <mxCell id="IN42v5I6NDS5oKX-7B5c-14" value="" style="edgeStyle=orthogonalEdgeStyle;rounded=0;orthogonalLoop=1;jettySize=auto;html=1;" edge="1" parent="1" source="IN42v5I6NDS5oKX-7B5c-11" target="IN42v5I6NDS5oKX-7B5c-13">
          <mxGeometry relative="1" as="geometry" />
        </mxCell>
        <mxCell id="IN42v5I6NDS5oKX-7B5c-11" value="&lt;div&gt;Image&lt;/div&gt;" style="rounded=1;whiteSpace=wrap;html=1;" vertex="1" parent="1">
          <mxGeometry x="690" y="505" width="120" height="80" as="geometry" />
        </mxCell>
        <mxCell id="IN42v5I6NDS5oKX-7B5c-13" value="AssetImage" style="rounded=1;whiteSpace=wrap;html=1;" vertex="1" parent="1">
          <mxGeometry x="690" y="670" width="120" height="80" as="geometry" />
        </mxCell>
        <mxCell id="IN42v5I6NDS5oKX-7B5c-18" value="" style="edgeStyle=orthogonalEdgeStyle;rounded=0;orthogonalLoop=1;jettySize=auto;html=1;" edge="1" parent="1" source="IN42v5I6NDS5oKX-7B5c-15" target="IN42v5I6NDS5oKX-7B5c-17">
          <mxGeometry relative="1" as="geometry" />
        </mxCell>
        <mxCell id="IN42v5I6NDS5oKX-7B5c-15" value="Title" style="rounded=1;whiteSpace=wrap;html=1;" vertex="1" parent="1">
          <mxGeometry x="354" y="530" width="120" height="80" as="geometry" />
        </mxCell>
        <mxCell id="IN42v5I6NDS5oKX-7B5c-17" value="Text" style="rounded=1;whiteSpace=wrap;html=1;" vertex="1" parent="1">
          <mxGeometry x="354" y="660" width="120" height="80" as="geometry" />
        </mxCell>
        <mxCell id="IN42v5I6NDS5oKX-7B5c-21" value="Color" style="rounded=1;whiteSpace=wrap;html=1;" vertex="1" parent="1">
          <mxGeometry x="170" y="530" width="120" height="80" as="geometry" />
        </mxCell>
      </root>
    </mxGraphModel>
  </diagram>
</mxfile>
